HIERARCHY
ROOT Hips
{
	OFFSET 0.00000 0.00000 0.00000
	CHANNELS 6 Xposition Yposition Zposition Zrotation Yrotation Xrotation 
	JOINT LHipJoint
	{
		OFFSET 0 0 0
		CHANNELS 3 Zrotation Yrotation Xrotation
		JOINT LeftUpLeg
		{
			OFFSET 1.36337 -1.57426 1.11036
			CHANNELS 3 Zrotation Yrotation Xrotation
			JOINT LeftLeg
			{
				OFFSET 2.38468 -6.55187 0.00000
				CHANNELS 3 Zrotation Yrotation Xrotation
				JOINT LeftFoot
				{
					OFFSET 2.37166 -6.51609 0.00000
					CHANNELS 3 Zrotation Yrotation Xrotation
					JOINT LeftToeBase
					{
						OFFSET 0.29078 -0.79891 2.01393
						CHANNELS 3 Zrotation Yrotation Xrotation
						End Site
						{
							OFFSET 0.00000 -0.00000 1.07924
						}
					}
				}
			}
		}
	}
	JOINT RHipJoint
	{
		OFFSET 0 0 0
		CHANNELS 3 Zrotation Yrotation Xrotation
		JOINT RightUpLeg
		{
			OFFSET -1.36349 -1.57426 1.11036
			CHANNELS 3 Zrotation Yrotation Xrotation
			JOINT RightLeg
			{
				OFFSET -2.29562 -6.30717 0.00000
				CHANNELS 3 Zrotation Yrotation Xrotation
				JOINT RightFoot
				{
					OFFSET -2.40985 -6.62100 0.00000
					CHANNELS 3 Zrotation Yrotation Xrotation
					JOINT RightToeBase
					{
						OFFSET -0.23197 -0.63733 1.92232
						CHANNELS 3 Zrotation Yrotation Xrotation
						End Site
						{
							OFFSET -0.00000 -0.00000 1.01562
						}
					}
				}
			}
		}
	}
	JOINT LowerBack
	{
		OFFSET 0 0 0
		CHANNELS 3 Zrotation Yrotation Xrotation
		JOINT Spine
		{
			OFFSET -0.08565 2.03602 -0.24562
			CHANNELS 3 Zrotation Yrotation Xrotation
			JOINT Spine1
			{
				OFFSET -0.00036 2.05693 0.00216
				CHANNELS 3 Zrotation Yrotation Xrotation
				JOINT Neck
				{
					OFFSET 0 0 0
					CHANNELS 3 Zrotation Yrotation Xrotation
					JOINT Neck1
					{
						OFFSET -0.03664 1.69515 0.31789
						CHANNELS 3 Zrotation Yrotation Xrotation
						JOINT Head
						{
							OFFSET 0.00932 1.70181 -0.46013
							CHANNELS 3 Zrotation Yrotation Xrotation
							End Site
							{
								OFFSET 0.01243 1.77620 -0.19377
							}
						}
					}
				}
				JOINT LeftShoulder
				{
					OFFSET 0 0 0
					CHANNELS 3 Zrotation Yrotation Xrotation
					JOINT LeftArm
					{
						OFFSET 3.74344 0.81315 -0.36647
						CHANNELS 3 Zrotation Yrotation Xrotation
						JOINT LeftForeArm
						{
							OFFSET 4.97185 -0.00000 -0.00000
							CHANNELS 3 Zrotation Yrotation Xrotation
							JOINT LeftHand
							{
								OFFSET 3.35811 -0.00000 0.00000
								CHANNELS 3 Zrotation Yrotation Xrotation
								JOINT LeftFingerBase
								{
									OFFSET 0 0 0
									CHANNELS 3 Zrotation Yrotation Xrotation
									JOINT LeftHandIndex1
									{
										OFFSET 0.62278 -0.00000 0.00000
										CHANNELS 3 Zrotation Yrotation Xrotation
										End Site
										{
											OFFSET 0.50210 -0.00000 0.00000
										}
									}
								}
								JOINT LThumb
								{
									OFFSET 0 0 0
									CHANNELS 3 Zrotation Yrotation Xrotation
									End Site
									{
										OFFSET 0.50976 -0.00000 0.50976
									}
								}
							}
						}
					}
				}
				JOINT RightShoulder
				{
					OFFSET 0 0 0
					CHANNELS 3 Zrotation Yrotation Xrotation
					JOINT RightArm
					{
						OFFSET -3.75385 0.50666 -0.06525
						CHANNELS 3 Zrotation Yrotation Xrotation
						JOINT RightForeArm
						{
							OFFSET -4.96493 -0.00000 -0.00000
							CHANNELS 3 Zrotation Yrotation Xrotation
							JOINT RightHand
							{
								OFFSET -3.34929 -0.00000 0.00000
								CHANNELS 3 Zrotation Yrotation Xrotation
								JOINT RightFingerBase
								{
									OFFSET 0 0 0
									CHANNELS 3 Zrotation Yrotation Xrotation
									JOINT RightHandIndex1
									{
										OFFSET -0.63804 -0.00000 0.00000
										CHANNELS 3 Zrotation Yrotation Xrotation
										End Site
										{
											OFFSET -0.51441 -0.00000 0.00000
										}
									}
								}
								JOINT RThumb
								{
									OFFSET 0 0 0
									CHANNELS 3 Zrotation Yrotation Xrotation
									End Site
									{
										OFFSET -0.52226 -0.00000 0.52226
									}
								}
							}
						}
					}
				}
			}
		}
	}
}
MOTION
Frames: 12
Frame Time: 0.166667
0.00 0.00 0.00 0 0 0 0 0 0 -21 0 0 0 0 0 0 0 0 0 0 0 0 0 0 21 0 0 0 0 0 0 0 0 0 0 0 0 0 0 0 0 0 0 0 0 0 0 -16 0 0 21 0 0 11 0 0 0 -8 0 0 0 0 0 0 0 0 0 0 0 0 0 0 0 0 0 0 0 0 8 0 0 0 0 0 0 0 0 0 0 0 0 0 0 0 0 0
0.00 0.00 0.00 -99.5509 92.1584 -95.2601 0.0000 0.0000 0.0000 -18.8280 -4.3597 -7.1687 1.8036 8.4443 24.0720 2.1446 7.6892 -31.2711 1.0404 6.4872 18.2046 0.0000 0.0000 0.0000 12.2784 -1.1084 -11.6407 -1.2854 -7.1842 20.2622 -0.6345 -6.9586 -19.1626 -0.0573 -1.5451 4.2500 -3.4471 -0.9405 4.7758 -0.0085 -1.2225 4.8542 1.9550 -0.6611 2.4024 -1.3296 0.7990 -22.6149 -0.3233 2.9780 36.6409 0.8084 1.2753 17.2001 -0.0000 0.0000 0.0000 -90.5445 -7.3529 33.6085 11.6855 -19.3313 -1.9969 -0.0000 0.0000 -1.8718 20.6984 -10.8624 -4.0728 -7.1250 0.0000 -0.0000 -4.4972 18.4081 2.8557 -0.0000 0.0000 0.0000 86.4821 6.2991 31.5580 -16.3861 26.0414 -3.8139 0.0000 -0.0000 -10.8343 -10.8514 -29.9329 5.4638 7.1250 -0.0000 -0.0000 22.9526 -58.8590 -8.0419
0.00 0.00 0.00 -135.1970 96.4307 -126.1730 0.0000 0.0000 0.0000 -14.7302 3.3783 -24.2922 4.4401 12.7241 38.3441 1.2439 3.6750 -22.6821 0.1547 2.5344 6.9851 0.0000 0.0000 0.0000 13.8274 4.0670 -24.5018 -3.2949 -11.1578 32.8139 -1.3931 -0.9797 -22.6847 -0.1467 -2.4682 6.8015 -0.8195 -0.3523 15.9382 0.0632 -0.1502 7.7475 0.5508 0.0813 -0.7116 -1.3798 1.7027 -23.4593 -3.4213 4.8755 31.2571 -0.1895 1.5580 14.8717 -0.0000 0.0000 0.0000 -85.2656 -11.0932 28.4971 17.4948 -27.5054 -4.3134 -0.0000 0.0000 -11.3861 21.5303 -12.7206 -4.9649 -7.1250 0.0000 -0.0000 -3.9747 16.3609 2.7007 -0.0000 0.0000 0.0000 81.0726 10.9931 33.5574 -21.5855 32.5054 -6.3616 0.0000 -0.0000 -16.6560 -11.0213 -29.7874 5.5265 7.1250 -0.0000 -0.0000 22.6667 -58.7637 -7.8826
0.00 0.00 0.00 -108.0970 96.6619 -102.5680 0.0000 0.0000 0.0000 -13.1627 -0.6017 -43.4907 4.0462 12.2217 36.5207 -0.0691 4.9357 -3.5409 0.5984 -4.9522 -13.7724 0.0000 0.0000 0.0000 13.2401 -2.2184 -27.7241 -6.6637 -15.0420 47.5905 -2.2405 4.9714 -27.2072 -0.2536 -3.2400 8.9477 2.6656 -1.5386 26.9041 -0.4502 -0.4703 9.6779 -1.9078 0.1813 -4.1529 -1.3496 1.9249 -23.9794 -5.3534 5.5902 28.7073 -0.8307 1.6182 13.9616 0.0000 -0.0000 0.0000 -83.8221 -8.8248 21.3468 19.7576 -30.3492 -5.4084 -0.0000 0.0000 -12.4262 23.3773 -13.8437 -5.9052 -7.1250 0.0000 -0.0000 -2.7596 14.9639 1.9558 0.0000 -0.0000 0.0000 76.8305 14.5670 32.4219 -23.9773 35.1402 -7.6935 0.0000 -0.0000 -18.2071 -13.7660 -28.9257 6.7579 7.1250 -0.0000 -0.0000 19.2031 -58.5725 -6.5268
0.00 0.00 0.00 -157.2210 97.6200 -150.1220 0.0000 0.0000 0.0000 -13.0409 1.8348 -51.6614 7.1071 15.4214 49.2781 0.0265 1.6990 -4.1830 0.0065 0.5197 1.4280 0.0000 0.0000 0.0000 7.7905 -4.1166 -22.8872 -8.5774 -16.5279 54.6167 -2.0007 11.6773 -25.5088 -0.0004 0.1357 -0.3729 0.8151 0.0127 30.4046 -1.3465 1.0405 9.8651 -2.3560 0.9040 -5.5102 -0.0851 3.8008 -25.6728 -6.6308 7.8832 26.2661 -1.0838 2.5507 13.4678 -0.0000 -0.0000 0.0000 -78.4969 -13.5962 30.1964 31.7631 -42.3575 -12.5809 -0.0000 0.0000 -17.7697 27.0275 -17.3405 -8.6453 -7.1250 0.0000 -0.0000 -0.5965 10.6638 0.4759 -0.0000 -0.0000 0.0000 74.5065 20.7768 34.8589 -26.8702 38.0551 -9.4190 0.0000 -0.0000 -19.2988 -13.2868 -29.8487 6.7034 7.1250 -0.0000 -0.0000 20.3671 -59.3300 -7.3162
0.00 0.00 0.00 -184.5240 99.9403 -175.7670 0.0000 0.0000 0.0000 -14.5151 1.0402 -52.5388 12.1593 18.4572 66.4929 1.3411 -5.6853 -20.7610 0.3981 4.0509 11.2199 0.0000 0.0000 0.0000 1.4566 -0.9252 -15.8006 -8.5086 -16.4809 54.3746 -0.6525 12.4639 -15.7355 -0.5987 4.9533 -13.7754 1.0102 1.3141 30.1123 -0.9827 2.6726 9.4951 -2.6082 1.6366 -5.7253 -0.3180 3.6482 -26.2700 -6.3324 7.5727 25.6128 -0.9794 2.4302 13.2753 -0.0000 -0.0000 0.0000 -76.9865 -16.7101 34.7379 32.6434 -43.0542 -13.1780 -0.0000 0.0000 -19.3452 27.1135 -14.7564 -7.4304 -7.1250 0.0000 -0.0000 -0.2915 13.4955 0.2154 -0.0000 -0.0000 0.0000 74.2379 24.9221 41.2018 -28.4987 39.5713 -10.4398 0.0000 -0.0000 -19.2773 -12.6128 -30.4693 6.4733 7.1250 -0.0000 -0.0000 21.5456 -59.7512 -7.9824
0.00 0.00 0.00 -192.4610 98.4068 -183.8010 0.0000 0.0000 0.0000 -16.7887 -0.3233 -47.7261 11.6976 18.2599 65.0271 2.0011 -6.7615 -25.4598 0.6775 5.2629 14.6600 0.0000 0.0000 0.0000 -0.8328 -1.0923 -27.2233 -14.0037 -19.1152 72.2159 -0.0090 3.7111 -2.9880 -0.0770 1.7895 -4.9243 -0.5399 1.3550 31.9796 -0.0472 2.3848 9.3697 -0.6496 1.4802 -6.8396 -0.5619 3.2669 -26.2991 -5.6951 6.9099 25.6179 -0.8186 2.2029 13.2127 0.0000 -0.0000 0.0000 -79.1951 -17.4781 35.8591 30.2215 -41.0825 -11.5549 -0.0000 0.0000 -20.1946 27.2421 -13.4927 -6.8500 -7.1250 0.0000 -0.0000 -0.0949 14.8767 0.0673 0.0000 -0.0000 0.0000 73.1924 24.3453 41.2192 -32.4867 42.9318 -13.0711 0.0000 -0.0000 -19.5729 -11.7373 -30.2442 5.9743 7.1250 -0.0000 -0.0000 22.2806 -59.3433 -8.0521
0.00 0.00 0.00 -186.7680 96.3001 -179.7080 0.0000 0.0000 0.0000 -20.1585 0.6282 -35.4187 10.1684 17.5035 60.0498 2.7977 -7.4028 -30.2736 0.2741 3.3675 9.3036 0.0000 0.0000 0.0000 2.4210 4.5336 -46.7365 -5.0274 -13.4146 40.9409 -0.0685 -1.0724 -5.4592 -0.1147 2.1839 -6.0141 -2.8182 0.8399 34.0357 0.0613 1.0958 9.3201 1.1210 0.9085 -7.0577 -2.3168 1.2598 -26.3424 -3.4368 4.2152 27.4026 -0.1560 1.1361 13.7614 -0.0000 -0.0000 0.0000 -81.0871 -15.9576 44.8001 28.9072 -39.9381 -10.7011 -0.0000 0.0000 -19.6768 25.3178 -9.6629 -4.5401 -7.1250 0.0000 -0.0000 -1.1804 19.3137 0.7237 -0.0000 -0.0000 0.0000 72.5633 20.6286 33.2282 -32.6589 43.0662 -13.1886 0.0000 -0.0000 -17.8198 -13.5840 -27.3328 6.3309 7.1250 -0.0000 -0.0000 18.3393 -57.0257 -5.5306
0.00 0.00 0.00 -457.2990 94.0262 -452.7310 0.0000 0.0000 0.0000 -10.3427 -5.8527 -32.4585 2.0206 8.9089 25.5106 -0.2948 9.5832 -3.0730 0.3583 -3.8457 -10.6429 0.0000 0.0000 0.0000 18.2641 -0.5058 -15.0391 -3.0551 -10.7837 31.5539 -1.5082 1.6061 -22.7616 -0.2059 -2.9219 8.0613 2.3565 -0.4370 22.8631 0.4980 0.5185 7.1979 -0.9642 0.4806 -4.8532 -1.6828 2.7072 -26.0427 -5.7139 7.1439 29.1824 -0.5982 2.1322 14.6664 0.0000 0.0000 0.0000 -87.1531 -5.6017 25.1761 17.4873 -27.4957 -4.3099 -0.0000 0.0000 -11.9509 21.2172 -11.4528 -4.4079 -7.1250 0.0000 -0.0000 -4.1483 17.7380 2.6943 0.0000 0.0000 0.0000 81.0601 10.1482 27.5253 -22.8779 33.9550 -7.0700 0.0000 -0.0000 -16.4528 -15.6037 -26.9844 7.2220 7.1250 -0.0000 -0.0000 16.0487 -57.1153 -4.8484
0.00 0.00 0.00 -557.1700 95.0287 -549.8870 0.0000 0.0000 0.0000 -11.8178 -0.5119 -37.8955 4.8048 13.1606 39.9725 0.3593 3.2064 -12.9615 0.0929 1.9657 5.4109 0.0000 0.0000 0.0000 18.1383 -0.1637 -0.2803 -1.0324 -6.4630 18.1337 -1.6032 -0.6977 -24.2076 -0.0041 0.4148 -1.1396 -0.6594 1.6015 20.4726 -0.2833 2.4215 7.5745 -0.4870 1.3892 -3.2480 -0.7854 3.7181 -27.0504 -6.2976 8.4684 29.2338 -0.7061 2.6617 15.0238 0.0000 -0.0000 0.0000 -84.4173 -10.4829 27.7208 17.9022 -28.0317 -4.5032 -0.0000 0.0000 -12.9926 23.7843 -12.8691 -5.6062 -7.1250 0.0000 -0.0000 -2.4241 15.9699 1.6651 0.0000 -0.0000 0.0000 83.1626 8.5529 29.7212 -22.6362 33.6886 -6.9354 0.0000 -0.0000 -17.5880 -17.4922 -25.9461 7.8508 7.1250 -0.0000 -0.0000 13.5098 -56.4948 -3.8565
0.00 0.00 0.00 -618.4750 91.9882 -611.2290 0.0000 0.0000 0.0000 -17.3662 -1.9989 -33.6345 7.1213 15.4332 49.3317 1.4119 -5.4267 -21.3419 0.3526 3.8150 10.5569 0.0000 0.0000 0.0000 11.2029 -4.9155 -13.0052 -7.7559 -15.9368 51.6788 -0.4243 -3.1978 -13.8963 -0.0466 1.3935 -3.8321 -4.2310 3.2127 22.0607 -1.0569 3.8739 8.3857 0.3105 2.1201 -3.3068 -2.2890 2.0945 -28.2197 -3.2425 5.4720 27.7847 0.1842 1.6718 14.3111 0.0000 -0.0000 0.0000 -80.8494 -11.9628 30.7905 18.0901 -28.2724 -4.5918 -0.0000 0.0000 -15.8358 22.3765 -10.7307 -4.3834 -7.1250 0.0000 -0.0000 -3.3096 18.4092 2.0985 0.0000 -0.0000 0.0000 82.4790 11.1090 35.0440 -27.1432 38.3155 -9.5878 0.0000 -0.0000 -20.5399 -16.5008 -26.1849 7.4473 7.1250 -0.0000 -0.0000 14.6652 -56.5244 -4.2065
0.00 0.00 0.00 -773.0790 91.1450 -767.1960 0.0000 0.0000 0.0000 -22.2720 0.4849 -21.2832 5.6445 14.0748 43.5379 2.0967 -6.2752 -26.1271 0.1797 2.7302 7.5286 0.0000 0.0000 0.0000 8.8425 2.7440 -39.4560 -3.4479 -11.3870 33.5965 -0.1255 -1.6659 -7.5229 -0.1831 2.7558 -7.5996 -8.0954 2.5517 23.8251 -1.4786 2.0958 8.3596 2.4236 1.2519 -4.1858 -2.5769 2.4409 -25.5776 -2.3797 5.4531 25.2140 0.5099 1.8671 12.6574 -0.0000 0.0000 0.0000 -79.4308 -11.8401 36.7190 23.2468 -34.3576 -7.2771 -0.0000 0.0000 -19.5846 23.6436 -9.5584 -4.1579 -7.1250 0.0000 -0.0000 -2.3690 19.5686 1.4399 -0.0000 0.0000 0.0000 81.0996 8.6663 32.2344 -30.3025 41.1513 -11.6082 0.0000 -0.0000 -18.8029 -15.6942 -25.5398 6.9072 7.1250 -0.0000 -0.0000 15.1430 -55.7300 -4.0540
